<mxfile host="app.diagrams.net" modified="2023-10-28T20:45:26.798Z" agent="Mozilla/5.0 (Windows NT 10.0; Win64; x64) AppleWebKit/537.36 (KHTML, like Gecko) Chrome/116.0.0.0 Safari/537.36 OPR/102.0.0.0" etag="wwGJXybIHrQtO_-TSebA" version="22.0.8" type="google">
  <diagram id="6XnlJjFsvoLAW1wFvSPH" name="Reserva">
    <mxGraphModel grid="1" page="1" gridSize="10" guides="1" tooltips="1" connect="1" arrows="1" fold="1" pageScale="1" pageWidth="827" pageHeight="1169" math="0" shadow="0">
      <root>
        <mxCell id="0" />
        <mxCell id="1" parent="0" />
        <mxCell id="TsBwq8GnMQbOhpgevhh2-4" style="edgeStyle=orthogonalEdgeStyle;rounded=0;orthogonalLoop=1;jettySize=auto;html=1;exitX=1;exitY=0.5;exitDx=0;exitDy=0;entryX=0.25;entryY=1;entryDx=0;entryDy=0;" edge="1" parent="1" source="TsBwq8GnMQbOhpgevhh2-1" target="TsBwq8GnMQbOhpgevhh2-3">
          <mxGeometry relative="1" as="geometry" />
        </mxCell>
        <mxCell id="TsBwq8GnMQbOhpgevhh2-1" value="" style="ellipse;whiteSpace=wrap;html=1;aspect=fixed;fillColor=#000000;" vertex="1" parent="1">
          <mxGeometry x="100" y="170" width="80" height="80" as="geometry" />
        </mxCell>
        <mxCell id="TsBwq8GnMQbOhpgevhh2-2" value="Inicio &quot; Realizar Reserva&quot;" style="text;html=1;align=center;verticalAlign=middle;resizable=0;points=[];autosize=1;strokeColor=none;fillColor=none;" vertex="1" parent="1">
          <mxGeometry x="60" y="260" width="160" height="30" as="geometry" />
        </mxCell>
        <mxCell id="TtlT5a_WtEdWXxrTGieL-1" style="edgeStyle=orthogonalEdgeStyle;rounded=0;orthogonalLoop=1;jettySize=auto;html=1;exitX=0.5;exitY=0;exitDx=0;exitDy=0;entryX=0.5;entryY=1;entryDx=0;entryDy=0;" edge="1" parent="1" source="TsBwq8GnMQbOhpgevhh2-3" target="TsBwq8GnMQbOhpgevhh2-5">
          <mxGeometry relative="1" as="geometry" />
        </mxCell>
        <mxCell id="TsBwq8GnMQbOhpgevhh2-3" value="" style="rounded=0;whiteSpace=wrap;html=1;fillColor=#000000;" vertex="1" parent="1">
          <mxGeometry x="260" y="150" width="210" height="10" as="geometry" />
        </mxCell>
        <mxCell id="TtlT5a_WtEdWXxrTGieL-3" style="edgeStyle=orthogonalEdgeStyle;rounded=0;orthogonalLoop=1;jettySize=auto;html=1;exitX=1;exitY=0.5;exitDx=0;exitDy=0;entryX=0;entryY=0.5;entryDx=0;entryDy=0;" edge="1" parent="1" source="TsBwq8GnMQbOhpgevhh2-5" target="TtlT5a_WtEdWXxrTGieL-2">
          <mxGeometry relative="1" as="geometry" />
        </mxCell>
        <mxCell id="TsBwq8GnMQbOhpgevhh2-5" value="Ingresar informacion de una nueva reserva&amp;nbsp;" style="rounded=0;whiteSpace=wrap;html=1;" vertex="1" parent="1">
          <mxGeometry x="305" y="10" width="120" height="60" as="geometry" />
        </mxCell>
        <mxCell id="D_zjNTo3kWnX3ECIwBGT-1" style="edgeStyle=orthogonalEdgeStyle;rounded=0;orthogonalLoop=1;jettySize=auto;html=1;exitX=1;exitY=0.5;exitDx=0;exitDy=0;entryX=0;entryY=0.5;entryDx=0;entryDy=0;" edge="1" parent="1" source="TtlT5a_WtEdWXxrTGieL-2" target="1OlZ9-s5AfkDfcZzPz9X-3">
          <mxGeometry relative="1" as="geometry" />
        </mxCell>
        <mxCell id="TtlT5a_WtEdWXxrTGieL-2" value="Ejecutar accion reservar" style="rounded=0;whiteSpace=wrap;html=1;" vertex="1" parent="1">
          <mxGeometry x="540" y="10" width="120" height="60" as="geometry" />
        </mxCell>
        <mxCell id="CTex1jeDOi3gSVYwZDe--1" style="edgeStyle=orthogonalEdgeStyle;rounded=0;orthogonalLoop=1;jettySize=auto;html=1;exitX=0.5;exitY=1;exitDx=0;exitDy=0;entryX=1;entryY=0.5;entryDx=0;entryDy=0;" edge="1" parent="1" source="1OlZ9-s5AfkDfcZzPz9X-1" target="D_zjNTo3kWnX3ECIwBGT-3">
          <mxGeometry relative="1" as="geometry" />
        </mxCell>
        <mxCell id="53K5rYwi9st51VsQfD15-1" style="edgeStyle=orthogonalEdgeStyle;rounded=0;orthogonalLoop=1;jettySize=auto;html=1;exitX=1;exitY=0.5;exitDx=0;exitDy=0;entryX=0;entryY=0.5;entryDx=0;entryDy=0;" edge="1" parent="1" source="1OlZ9-s5AfkDfcZzPz9X-1" target="CTex1jeDOi3gSVYwZDe--4">
          <mxGeometry relative="1" as="geometry" />
        </mxCell>
        <mxCell id="1OlZ9-s5AfkDfcZzPz9X-1" value="" style="rhombus;whiteSpace=wrap;html=1;" vertex="1" parent="1">
          <mxGeometry x="990" width="80" height="80" as="geometry" />
        </mxCell>
        <mxCell id="D_zjNTo3kWnX3ECIwBGT-2" style="edgeStyle=orthogonalEdgeStyle;rounded=0;orthogonalLoop=1;jettySize=auto;html=1;exitX=1;exitY=0.5;exitDx=0;exitDy=0;entryX=0;entryY=0.5;entryDx=0;entryDy=0;" edge="1" parent="1" source="1OlZ9-s5AfkDfcZzPz9X-3" target="1OlZ9-s5AfkDfcZzPz9X-1">
          <mxGeometry relative="1" as="geometry" />
        </mxCell>
        <mxCell id="1OlZ9-s5AfkDfcZzPz9X-3" value="Validar informacion a nivel de tipo de dato,longitud,&lt;br style=&quot;border-color: var(--border-color);&quot;&gt;obligatoriedad,&lt;br style=&quot;border-color: var(--border-color);&quot;&gt;formato,rango" style="rounded=0;whiteSpace=wrap;html=1;" vertex="1" parent="1">
          <mxGeometry x="760" width="140" height="80" as="geometry" />
        </mxCell>
        <mxCell id="CTex1jeDOi3gSVYwZDe--2" style="edgeStyle=orthogonalEdgeStyle;rounded=0;orthogonalLoop=1;jettySize=auto;html=1;exitX=0;exitY=0.5;exitDx=0;exitDy=0;entryX=0.903;entryY=1.033;entryDx=0;entryDy=0;entryPerimeter=0;" edge="1" parent="1" source="D_zjNTo3kWnX3ECIwBGT-3" target="TsBwq8GnMQbOhpgevhh2-3">
          <mxGeometry relative="1" as="geometry" />
        </mxCell>
        <mxCell id="D_zjNTo3kWnX3ECIwBGT-3" value="Mostrar un mensaje de error al usuario indicando que existen datos invalidos" style="rounded=0;whiteSpace=wrap;html=1;" vertex="1" parent="1">
          <mxGeometry x="770" y="220" width="120" height="60" as="geometry" />
        </mxCell>
        <mxCell id="CTex1jeDOi3gSVYwZDe--3" value="Datos no validos&amp;nbsp;" style="text;html=1;align=center;verticalAlign=middle;resizable=0;points=[];autosize=1;strokeColor=none;fillColor=none;" vertex="1" parent="1">
          <mxGeometry x="970" y="89" width="120" height="30" as="geometry" />
        </mxCell>
        <mxCell id="0WgzdsHiNNsqqMg85gO2-4" style="edgeStyle=orthogonalEdgeStyle;rounded=0;orthogonalLoop=1;jettySize=auto;html=1;exitX=1;exitY=0.5;exitDx=0;exitDy=0;entryX=0.5;entryY=0;entryDx=0;entryDy=0;" edge="1" parent="1" source="CTex1jeDOi3gSVYwZDe--4" target="0WgzdsHiNNsqqMg85gO2-3">
          <mxGeometry relative="1" as="geometry" />
        </mxCell>
        <mxCell id="CTex1jeDOi3gSVYwZDe--4" value="Validar Disponibilidades para reservar" style="rounded=0;whiteSpace=wrap;html=1;" vertex="1" parent="1">
          <mxGeometry x="1170" y="10" width="120" height="60" as="geometry" />
        </mxCell>
        <mxCell id="17BXlUjHG9g_Bw8IidMy-8" style="edgeStyle=orthogonalEdgeStyle;rounded=0;orthogonalLoop=1;jettySize=auto;html=1;exitX=0.5;exitY=1;exitDx=0;exitDy=0;entryX=0.5;entryY=0;entryDx=0;entryDy=0;" edge="1" parent="1" target="vEgJ6tn7lRix7L800eG8-6">
          <mxGeometry relative="1" as="geometry">
            <mxPoint x="1490" y="621" as="sourcePoint" />
          </mxGeometry>
        </mxCell>
        <mxCell id="oVBhC6GmWLuiN5RCZXik-4" style="edgeStyle=orthogonalEdgeStyle;rounded=0;orthogonalLoop=1;jettySize=auto;html=1;exitX=0;exitY=0.5;exitDx=0;exitDy=0;entryX=0.5;entryY=0;entryDx=0;entryDy=0;" edge="1" parent="1">
          <mxGeometry relative="1" as="geometry">
            <mxPoint x="1450" y="581" as="sourcePoint" />
            <mxPoint x="1281" y="687" as="targetPoint" />
          </mxGeometry>
        </mxCell>
        <mxCell id="0WgzdsHiNNsqqMg85gO2-7" style="edgeStyle=orthogonalEdgeStyle;rounded=0;orthogonalLoop=1;jettySize=auto;html=1;exitX=1;exitY=0.5;exitDx=0;exitDy=0;entryX=0.5;entryY=1;entryDx=0;entryDy=0;" edge="1" parent="1" source="53K5rYwi9st51VsQfD15-2" target="vEgJ6tn7lRix7L800eG8-11">
          <mxGeometry relative="1" as="geometry" />
        </mxCell>
        <mxCell id="53K5rYwi9st51VsQfD15-2" value="" style="rhombus;whiteSpace=wrap;html=1;" vertex="1" parent="1">
          <mxGeometry x="1450" y="540" width="80" height="80" as="geometry" />
        </mxCell>
        <mxCell id="sbwsP_CRgvF2kYDgtfI9-2" style="edgeStyle=orthogonalEdgeStyle;rounded=0;orthogonalLoop=1;jettySize=auto;html=1;exitX=1;exitY=0.5;exitDx=0;exitDy=0;" edge="1" parent="1" source="53K5rYwi9st51VsQfD15-4" target="sbwsP_CRgvF2kYDgtfI9-1">
          <mxGeometry relative="1" as="geometry" />
        </mxCell>
        <mxCell id="53K5rYwi9st51VsQfD15-4" value="Registrar informacion de la nueva reserva" style="rounded=0;whiteSpace=wrap;html=1;" vertex="1" parent="1">
          <mxGeometry x="1710" y="-292" width="120" height="60" as="geometry" />
        </mxCell>
        <mxCell id="53K5rYwi9st51VsQfD15-6" value="Datos Validos" style="text;html=1;align=center;verticalAlign=middle;resizable=0;points=[];autosize=1;strokeColor=none;fillColor=none;" vertex="1" parent="1">
          <mxGeometry x="1060" y="1" width="100" height="30" as="geometry" />
        </mxCell>
        <mxCell id="53K5rYwi9st51VsQfD15-7" value="Espacio disponible para reserva" style="text;html=1;align=center;verticalAlign=middle;resizable=0;points=[];autosize=1;strokeColor=none;fillColor=none;" vertex="1" parent="1">
          <mxGeometry x="1541" y="549" width="190" height="30" as="geometry" />
        </mxCell>
        <mxCell id="FlJ63MKGTtfYHZ_d8N8c-2" style="edgeStyle=orthogonalEdgeStyle;rounded=0;orthogonalLoop=1;jettySize=auto;html=1;exitX=1;exitY=0.5;exitDx=0;exitDy=0;entryX=0;entryY=0.5;entryDx=0;entryDy=0;" edge="1" parent="1" source="sbwsP_CRgvF2kYDgtfI9-1" target="FlJ63MKGTtfYHZ_d8N8c-1">
          <mxGeometry relative="1" as="geometry" />
        </mxCell>
        <mxCell id="sbwsP_CRgvF2kYDgtfI9-1" value="Mostrar mensaje de exito indicando que la reserva se registrÃ³ exitosamente" style="rounded=0;whiteSpace=wrap;html=1;" vertex="1" parent="1">
          <mxGeometry x="1950" y="-297" width="140" height="70" as="geometry" />
        </mxCell>
        <mxCell id="FlJ63MKGTtfYHZ_d8N8c-1" value="Actualizar la disponibilidad de la agenda,mostrando la nueva reserva" style="rounded=0;whiteSpace=wrap;html=1;" vertex="1" parent="1">
          <mxGeometry x="2200" y="-297" width="140" height="70" as="geometry" />
        </mxCell>
        <mxCell id="vEgJ6tn7lRix7L800eG8-5" value="Espacio Parcialmente disponible para reservar" style="text;html=1;align=center;verticalAlign=middle;resizable=0;points=[];autosize=1;strokeColor=none;fillColor=none;" vertex="1" parent="1">
          <mxGeometry x="1493" y="608" width="270" height="30" as="geometry" />
        </mxCell>
        <mxCell id="vEgJ6tn7lRix7L800eG8-8" style="edgeStyle=orthogonalEdgeStyle;rounded=0;orthogonalLoop=1;jettySize=auto;html=1;exitX=0.5;exitY=1;exitDx=0;exitDy=0;entryX=0.5;entryY=0;entryDx=0;entryDy=0;" edge="1" parent="1" source="vEgJ6tn7lRix7L800eG8-6">
          <mxGeometry relative="1" as="geometry">
            <mxPoint x="1491" y="873" as="targetPoint" />
          </mxGeometry>
        </mxCell>
        <mxCell id="vEgJ6tn7lRix7L800eG8-6" value="Mostrar un mensaje al usuario indicandÃ³le los espacios disponibles para reservar, y preguntarle si desea continuar con la transaccion&amp;nbsp;" style="rounded=0;whiteSpace=wrap;html=1;" vertex="1" parent="1">
          <mxGeometry x="1421" y="677" width="140" height="100" as="geometry" />
        </mxCell>
        <mxCell id="vEgJ6tn7lRix7L800eG8-9" style="edgeStyle=orthogonalEdgeStyle;rounded=0;orthogonalLoop=1;jettySize=auto;html=1;exitX=0;exitY=0.5;exitDx=0;exitDy=0;entryX=0.5;entryY=1;entryDx=0;entryDy=0;" edge="1" parent="1" source="vEgJ6tn7lRix7L800eG8-7" target="TsBwq8GnMQbOhpgevhh2-3">
          <mxGeometry relative="1" as="geometry">
            <mxPoint x="340.79998779296875" y="170" as="targetPoint" />
          </mxGeometry>
        </mxCell>
        <mxCell id="0WgzdsHiNNsqqMg85gO2-21" style="edgeStyle=orthogonalEdgeStyle;rounded=0;orthogonalLoop=1;jettySize=auto;html=1;exitX=1;exitY=0.5;exitDx=0;exitDy=0;entryX=0.75;entryY=1;entryDx=0;entryDy=0;" edge="1" parent="1" source="vEgJ6tn7lRix7L800eG8-7" target="vEgJ6tn7lRix7L800eG8-11">
          <mxGeometry relative="1" as="geometry" />
        </mxCell>
        <mxCell id="vEgJ6tn7lRix7L800eG8-7" value="" style="rhombus;whiteSpace=wrap;html=1;" vertex="1" parent="1">
          <mxGeometry x="1451" y="872" width="80" height="80" as="geometry" />
        </mxCell>
        <mxCell id="vEgJ6tn7lRix7L800eG8-10" value="El usuario cancela la operacion" style="text;html=1;align=center;verticalAlign=middle;resizable=0;points=[];autosize=1;strokeColor=none;fillColor=none;" vertex="1" parent="1">
          <mxGeometry x="1266" y="880" width="190" height="30" as="geometry" />
        </mxCell>
        <mxCell id="vEgJ6tn7lRix7L800eG8-13" style="edgeStyle=orthogonalEdgeStyle;rounded=0;orthogonalLoop=1;jettySize=auto;html=1;exitX=0.5;exitY=0;exitDx=0;exitDy=0;" edge="1" parent="1" source="vEgJ6tn7lRix7L800eG8-11">
          <mxGeometry relative="1" as="geometry">
            <mxPoint x="1770" y="-227" as="targetPoint" />
          </mxGeometry>
        </mxCell>
        <mxCell id="vEgJ6tn7lRix7L800eG8-11" value="" style="rounded=0;whiteSpace=wrap;html=1;fillColor=#000000;" vertex="1" parent="1">
          <mxGeometry x="1710" y="-155" width="120" height="9" as="geometry" />
        </mxCell>
        <mxCell id="vEgJ6tn7lRix7L800eG8-15" value="El usuario continua con la operacion" style="text;html=1;align=center;verticalAlign=middle;resizable=0;points=[];autosize=1;strokeColor=none;fillColor=none;" vertex="1" parent="1">
          <mxGeometry x="1523" y="885" width="220" height="30" as="geometry" />
        </mxCell>
        <mxCell id="17BXlUjHG9g_Bw8IidMy-1" value="" style="ellipse;whiteSpace=wrap;html=1;aspect=fixed;" vertex="1" parent="1">
          <mxGeometry x="2495" y="-307" width="100" height="100" as="geometry" />
        </mxCell>
        <mxCell id="17BXlUjHG9g_Bw8IidMy-2" value="" style="ellipse;whiteSpace=wrap;html=1;aspect=fixed;strokeColor=#000000;fillColor=#000000;" vertex="1" parent="1">
          <mxGeometry x="2505" y="-297" width="80" height="80" as="geometry" />
        </mxCell>
        <mxCell id="17BXlUjHG9g_Bw8IidMy-3" value="Fin &quot;Realizar Reserva&quot;" style="text;html=1;align=center;verticalAlign=middle;resizable=0;points=[];autosize=1;strokeColor=none;fillColor=none;" vertex="1" parent="1">
          <mxGeometry x="2475" y="-208" width="140" height="30" as="geometry" />
        </mxCell>
        <mxCell id="17BXlUjHG9g_Bw8IidMy-5" style="edgeStyle=orthogonalEdgeStyle;rounded=0;orthogonalLoop=1;jettySize=auto;html=1;exitX=1;exitY=0.5;exitDx=0;exitDy=0;entryX=-0.002;entryY=0.438;entryDx=0;entryDy=0;entryPerimeter=0;" edge="1" parent="1" source="FlJ63MKGTtfYHZ_d8N8c-1" target="17BXlUjHG9g_Bw8IidMy-1">
          <mxGeometry relative="1" as="geometry" />
        </mxCell>
        <mxCell id="oVBhC6GmWLuiN5RCZXik-1" value="Mostrar un mensaje al usuario indicnadole que no existe disponiblidad para la reserva" style="rounded=0;whiteSpace=wrap;html=1;" vertex="1" parent="1">
          <mxGeometry x="1211" y="689" width="140" height="100" as="geometry" />
        </mxCell>
        <mxCell id="oVBhC6GmWLuiN5RCZXik-2" style="edgeStyle=orthogonalEdgeStyle;rounded=0;orthogonalLoop=1;jettySize=auto;html=1;exitX=0.5;exitY=1;exitDx=0;exitDy=0;entryX=0.624;entryY=0.9;entryDx=0;entryDy=0;entryPerimeter=0;" edge="1" parent="1" source="oVBhC6GmWLuiN5RCZXik-1" target="TsBwq8GnMQbOhpgevhh2-3">
          <mxGeometry relative="1" as="geometry" />
        </mxCell>
        <mxCell id="oVBhC6GmWLuiN5RCZXik-5" value="Espacio no disponible para reserva" style="text;html=1;align=center;verticalAlign=middle;resizable=0;points=[];autosize=1;strokeColor=none;fillColor=none;" vertex="1" parent="1">
          <mxGeometry x="1266" y="591" width="210" height="30" as="geometry" />
        </mxCell>
        <mxCell id="0WgzdsHiNNsqqMg85gO2-5" style="edgeStyle=orthogonalEdgeStyle;rounded=0;orthogonalLoop=1;jettySize=auto;html=1;exitX=0.5;exitY=1;exitDx=0;exitDy=0;" edge="1" parent="1" source="0WgzdsHiNNsqqMg85gO2-3" target="53K5rYwi9st51VsQfD15-2">
          <mxGeometry relative="1" as="geometry" />
        </mxCell>
        <mxCell id="0WgzdsHiNNsqqMg85gO2-11" style="edgeStyle=orthogonalEdgeStyle;rounded=0;orthogonalLoop=1;jettySize=auto;html=1;exitX=0;exitY=0.5;exitDx=0;exitDy=0;entryX=0.5;entryY=0;entryDx=0;entryDy=0;" edge="1" parent="1" source="0WgzdsHiNNsqqMg85gO2-3" target="0WgzdsHiNNsqqMg85gO2-10">
          <mxGeometry relative="1" as="geometry" />
        </mxCell>
        <mxCell id="0WgzdsHiNNsqqMg85gO2-3" value="" style="rhombus;whiteSpace=wrap;html=1;" vertex="1" parent="1">
          <mxGeometry x="1450" y="60" width="80" height="80" as="geometry" />
        </mxCell>
        <mxCell id="0WgzdsHiNNsqqMg85gO2-6" value="Reserva Periodica" style="text;html=1;align=center;verticalAlign=middle;resizable=0;points=[];autosize=1;strokeColor=none;fillColor=none;" vertex="1" parent="1">
          <mxGeometry x="1430" y="140" width="120" height="30" as="geometry" />
        </mxCell>
        <mxCell id="0WgzdsHiNNsqqMg85gO2-14" style="edgeStyle=orthogonalEdgeStyle;rounded=0;orthogonalLoop=1;jettySize=auto;html=1;exitX=1;exitY=0.5;exitDx=0;exitDy=0;entryX=0.25;entryY=1;entryDx=0;entryDy=0;" edge="1" parent="1" source="0WgzdsHiNNsqqMg85gO2-10" target="vEgJ6tn7lRix7L800eG8-11">
          <mxGeometry relative="1" as="geometry" />
        </mxCell>
        <mxCell id="0WgzdsHiNNsqqMg85gO2-17" style="edgeStyle=orthogonalEdgeStyle;rounded=0;orthogonalLoop=1;jettySize=auto;html=1;exitX=0;exitY=0.5;exitDx=0;exitDy=0;entryX=0.5;entryY=0;entryDx=0;entryDy=0;" edge="1" parent="1" source="0WgzdsHiNNsqqMg85gO2-10">
          <mxGeometry relative="1" as="geometry">
            <mxPoint x="1129" y="360" as="targetPoint" />
          </mxGeometry>
        </mxCell>
        <mxCell id="0WgzdsHiNNsqqMg85gO2-10" value="" style="rhombus;whiteSpace=wrap;html=1;" vertex="1" parent="1">
          <mxGeometry x="1249" y="250" width="80" height="80" as="geometry" />
        </mxCell>
        <mxCell id="0WgzdsHiNNsqqMg85gO2-12" value="Reserva Unica" style="text;html=1;align=center;verticalAlign=middle;resizable=0;points=[];autosize=1;strokeColor=none;fillColor=none;" vertex="1" parent="1">
          <mxGeometry x="1352" y="75" width="100" height="30" as="geometry" />
        </mxCell>
        <mxCell id="0WgzdsHiNNsqqMg85gO2-15" value="&lt;blockquote style=&quot;margin: 0 0 0 40px; border: none; padding: 0px;&quot;&gt;Espacio disponible para reserva&lt;/blockquote&gt;" style="text;html=1;align=center;verticalAlign=middle;resizable=0;points=[];autosize=1;strokeColor=none;fillColor=none;" vertex="1" parent="1">
          <mxGeometry x="1272" y="290" width="230" height="30" as="geometry" />
        </mxCell>
        <mxCell id="0WgzdsHiNNsqqMg85gO2-20" style="edgeStyle=orthogonalEdgeStyle;rounded=0;orthogonalLoop=1;jettySize=auto;html=1;exitX=0;exitY=0.5;exitDx=0;exitDy=0;entryX=0.75;entryY=1;entryDx=0;entryDy=0;" edge="1" parent="1" source="0WgzdsHiNNsqqMg85gO2-16" target="TsBwq8GnMQbOhpgevhh2-3">
          <mxGeometry relative="1" as="geometry">
            <mxPoint x="560" y="400" as="targetPoint" />
          </mxGeometry>
        </mxCell>
        <mxCell id="0WgzdsHiNNsqqMg85gO2-16" value="Mostrar un mensaje al usuario indicnadole que no existe disponiblidad para la reserva" style="rounded=0;whiteSpace=wrap;html=1;" vertex="1" parent="1">
          <mxGeometry x="1060" y="360" width="140" height="100" as="geometry" />
        </mxCell>
        <mxCell id="0WgzdsHiNNsqqMg85gO2-18" value="Espacio no disponible para reserva" style="text;html=1;align=center;verticalAlign=middle;resizable=0;points=[];autosize=1;strokeColor=none;fillColor=none;" vertex="1" parent="1">
          <mxGeometry x="1039" y="250" width="210" height="30" as="geometry" />
        </mxCell>
      </root>
    </mxGraphModel>
  </diagram>
</mxfile>
